<svg xmlns="http://www.w3.org/2000/svg" version="1.1" id="Layer_1" x="0px" y="0px" width="100%" viewBox="200 350 650 300" enable-background="new 0 0 1024 1024" xml:space="preserve" fill-rule="evenodd">
  <g transform="scale(1.01, 1)">
  
  <path fill="#0BA1AC" opacity="1.000000" stroke="none" d="M725.632812,427.190063 C732.016418,442.513733 738.256042,457.484100 744.495728,472.454437 C744.949341,472.452240 745.402954,472.450043 745.856567,472.447845 C748.732788,466.013916 751.764343,459.644226 754.456360,453.134155 C762.916870,432.674561 771.334229,412.195953 779.548950,391.637024 C780.923279,388.197479 782.532288,386.625519 786.394226,386.885071 C791.703247,387.241882 797.079285,387.317139 802.377869,386.897308 C806.970642,386.533386 807.887512,388.255951 807.877014,392.532684 C807.749939,444.190887 807.810059,495.849579 807.821289,547.508118 C807.822205,551.795410 807.821533,556.082764 807.821533,560.652771 C799.331787,560.652771 791.421204,560.652771 782.897400,560.652771 C782.897400,525.879883 782.897400,491.394104 782.897400,456.908356 C782.337463,456.757782 781.777588,456.607239 781.217651,456.456665 C769.585205,484.659729 757.952759,512.862793 746.320312,541.065796 C745.784058,541.134827 745.247803,541.203796 744.711548,541.272766 C732.895203,512.891113 721.078857,484.509460 709.262451,456.127838 C708.888550,456.200378 708.514648,456.272949 708.140747,456.345490 C708.140747,490.955536 708.140747,525.565613 708.140747,560.584595 C699.680420,560.584595 691.811707,560.584595 683.565308,560.584595 C683.565308,502.843842 683.565308,445.271820 683.565308,387.084961 C691.891479,387.084961 699.988708,386.931091 708.065979,387.263214 C709.182068,387.309113 710.580994,389.604401 711.201782,391.122925 C716.053345,402.991089 720.746704,414.923859 725.632812,427.190063 z" />
  <path fill="#0AA1AB" opacity="1.000000" stroke="none" d="M320.252563,444.276276 C319.784912,458.209015 319.751007,471.830322 312.752594,484.005066 C310.629395,487.698730 307.803680,491.066803 304.885803,494.198334 C302.889954,496.340363 302.558289,497.966827 303.616425,500.770844 C310.257477,518.369202 316.643280,536.063965 323.094482,553.733765 C323.823029,555.729309 324.432831,557.768250 325.435791,560.813660 C316.034912,560.813660 307.314240,560.929260 298.605988,560.653870 C297.619690,560.622803 296.340363,558.531006 295.809357,557.157959 C289.628601,541.176453 283.350616,525.226196 277.589142,509.092468 C275.600677,503.524261 272.783356,501.197388 266.771332,501.787933 C260.994904,502.355316 255.107895,502.150848 249.292053,501.849701 C244.768402,501.615509 243.167038,503.064545 243.258057,507.783661 C243.560028,523.440613 243.187424,539.112244 243.595535,554.764587 C243.734528,560.095459 241.899261,561.299011 237.038010,560.986572 C230.943466,560.594788 224.804626,560.892273 218.413513,560.892273 C218.413513,502.930054 218.413513,445.511414 218.413513,387.456757 C220.144699,387.347565 221.892670,387.142578 223.640778,387.141541 C243.801773,387.129822 263.967712,387.422913 284.122009,387.060333 C296.828339,386.831726 305.198303,392.989777 311.238556,403.307709 C316.565125,412.406586 318.768066,422.464020 319.647339,432.851776 C319.956268,436.501465 320.044312,440.169830 320.252563,444.276276 M254.525711,430.184814 C252.198303,430.171661 249.852875,430.336884 247.547699,430.103790 C244.038391,429.748993 242.868454,431.106445 243.009460,434.617249 C243.269440,441.091370 243.194702,447.582489 243.118423,454.064850 C243.086380,456.789062 244.091507,457.987671 246.901520,457.966766 C260.034302,457.868988 273.169342,457.978027 286.300323,457.786987 C291.546448,457.710663 295.049133,454.945282 295.570709,449.823792 C295.994110,445.666504 295.522217,441.250580 294.552002,437.161804 C293.377350,432.211395 289.577667,430.089447 284.443237,430.143066 C274.801971,430.243774 265.158966,430.179382 254.525711,430.184814 z" />
  <path fill="#08A1AA" opacity="1.000000" stroke="none" d="M403.855194,490.461121 C402.219391,491.434540 400.648834,492.414612 399.067078,492.432983 C386.575989,492.578308 374.080933,492.667419 361.591431,492.480408 C357.876617,492.424805 356.499207,493.542328 356.708008,497.295288 C356.976013,502.111816 357.036499,506.966278 356.753967,511.778961 C356.514709,515.854492 357.774872,517.246643 362.050812,517.205261 C381.870392,517.013245 401.695038,517.314087 421.513702,517.081787 C426.361572,517.024963 427.796112,518.491943 427.680115,523.273254 C427.382324,535.547852 427.580627,547.834595 427.580627,560.495605 C395.466949,560.495605 364.084473,560.495605 332.081604,560.495605 C332.081604,502.894043 332.081604,445.375824 332.081604,387.333771 C333.662109,387.235291 335.251862,387.050690 336.841705,387.049896 C364.159088,387.036011 391.476959,387.124298 418.793396,386.964722 C422.994476,386.940186 424.700470,387.840393 424.585999,392.449677 C424.280701,404.739838 424.482086,417.042572 424.482086,429.847900 C422.173004,429.971558 420.415985,430.145905 418.658844,430.147491 C399.669983,430.164642 380.679901,430.267853 361.693268,430.060791 C357.682343,430.017059 356.552795,431.220154 356.622589,435.151154 C356.837433,447.250397 356.686066,447.478851 368.794647,447.829102 C378.108704,448.098511 387.441620,447.682159 396.766510,447.618591 C403.963776,447.569519 404.002258,447.602478 404.001862,454.544220 C404.001129,466.370209 403.946960,478.196228 403.855194,490.461121 z" />
  <path fill="#0BA1AB" opacity="1.000000" stroke="none" d="M515.301636,457.999939 C515.325439,435.678711 515.443909,413.856842 515.286072,392.036926 C515.257507,388.093231 516.359924,386.665009 520.342957,386.916901 C524.988403,387.210663 529.666809,386.984619 534.330872,386.981659 C541.254944,386.977295 541.275391,386.976379 541.276245,393.672302 C541.281921,437.980804 541.278076,482.289337 541.277405,526.597839 C541.277222,537.737427 541.277344,548.876953 541.277344,560.872070 C532.504089,560.872070 524.421692,561.001709 516.353577,560.719543 C515.258728,560.681152 513.879944,558.751648 513.231873,557.408630 C497.834351,525.499023 482.522766,493.547913 467.181549,461.611084 C465.928314,459.002075 464.575653,456.440826 463.269165,453.857361 C462.846924,453.965637 462.424652,454.073883 462.002411,454.182129 C462.002411,489.474457 462.002411,524.766785 462.002411,560.482544 C453.495697,560.482544 445.633423,560.482544 437.157715,560.482544 C437.157715,558.456970 437.158051,556.511475 437.157654,554.566040 C437.146912,500.429504 437.187805,446.292786 437.026123,392.156708 C437.013336,387.878937 438.281372,386.416016 442.365448,387.011902 C443.670166,387.202271 445.080994,387.285919 446.350403,387.002502 C459.002930,384.177032 464.707458,390.276672 469.730225,401.576324 C482.772949,430.918457 497.411560,459.551422 511.431610,488.458466 C512.175964,489.993256 513.089050,491.446228 513.923584,492.937286 C514.382935,492.829224 514.842224,492.721130 515.301575,492.613068 C515.301575,481.242004 515.301575,469.870972 515.301636,457.999939 z" />
  <path fill="#FCC015" opacity="1.000000" stroke="none" d="M631.866516,475.440399 C620.247070,485.972504 612.414001,499.156464 607.224792,513.634949 C602.244080,527.531860 598.768738,541.968872 594.650696,556.173950 C594.154358,557.886292 593.775208,559.632629 592.982483,562.797791 C587.878052,558.975159 583.214233,556.153931 579.365601,552.479065 C565.820557,539.545532 559.034180,523.044312 555.809998,504.989349 C550.466858,475.068115 551.231323,445.579865 564.190674,417.449158 C570.085693,404.652954 578.807922,394.046082 591.589600,387.328552 C592.467163,386.867371 593.360779,386.421478 594.286438,386.073517 C594.721436,385.910004 595.250305,385.996185 596.458679,385.929138 C602.666809,416.355072 609.431274,446.734955 630.686157,471.811798 C631.503662,473.080475 631.844360,473.997681 632.120605,475.055450 C632.056152,475.196014 631.866516,475.440399 631.866516,475.440399 z" />
  <path fill="#0BA1AB" opacity="1.000000" stroke="none" d="M633.616699,474.950684 C640.780762,480.774475 648.276367,486.021454 657.848877,486.799408 C661.921570,487.130371 666.043579,486.854645 671.361938,486.854645 C670.011047,494.906891 669.125916,503.119080 667.194031,511.077148 C663.346680,526.925781 657.178223,541.761047 644.913391,553.167786 C636.917908,560.603882 627.713013,565.665161 616.371033,565.624146 C615.707397,565.621765 615.036743,565.643799 614.383545,565.552856 C614.098389,565.513184 613.848816,565.217224 613.000671,564.644165 C624.473511,536.404785 630.735168,506.821503 631.927734,475.820618 C631.866516,475.440399 632.056152,475.196014 632.286316,475.146637 C632.883240,475.048401 633.249939,474.999542 633.616699,474.950684 z" />
  <path fill="#91C641" opacity="1.000000" stroke="none" d="M633.832397,474.606201 C633.249939,474.999542 632.883240,475.048401 632.350830,475.006073 C631.844360,473.997681 631.503662,473.080475 630.973511,472.117310 C631.150269,471.011078 631.850525,469.945465 631.833496,468.891418 C631.433105,444.137299 628.297485,419.813538 620.110168,396.315918 C619.401306,394.281494 618.430481,392.339325 617.692261,390.313904 C617.021606,388.473938 616.501953,386.578918 615.518738,383.441193 C619.860779,384.319336 623.438293,384.647308 626.739502,385.780273 C639.666199,390.216827 648.504883,399.385956 655.329529,410.898926 C664.704346,426.713959 668.863953,444.045654 670.639038,462.105896 C670.780579,463.546417 670.657776,465.012939 670.657776,467.256744 C656.863403,462.991760 644.617615,464.737000 633.832397,474.606201 z" />
  </g>
  
  
  <text x="420" y="610" font-family="Arial, sans-serif" font-size="44" fill="#000000" font-weight="normal" letter-spacing="0">
    Renewing Our Future
  </text>
</svg>
